<svg width="55" height="39" viewBox="0 0 55 39" fill="none" xmlns="http://www.w3.org/2000/svg">
<path d="M12.0732 14.4089C18.7114 14.4089 24.0927 19.7904 24.0927 26.4285C24.0927 33.0666 18.7114 38.448 12.0732 38.448C5.43497 38.448 0.0536585 33.0666 0.0536585 26.4285L0 24.7114C0 11.435 10.7626 0.672363 24.039 0.672363V7.54066C19.4526 7.54066 15.1406 9.32673 11.8975 12.5699C11.2732 13.1942 10.7035 13.8585 10.1895 14.5563C10.8033 14.4597 11.4323 14.4089 12.0732 14.4089ZM42.9805 14.4089C49.6186 14.4089 55 19.7904 55 26.4285C55 33.0666 49.6186 38.448 42.9805 38.448C36.3424 38.448 30.961 33.0666 30.961 26.4285L30.9073 24.7114C30.9073 11.435 41.6698 0.672363 54.9463 0.672363V7.54066C50.36 7.54066 46.0478 9.32673 42.8048 12.5699C42.1804 13.1942 41.6107 13.8585 41.0968 14.5563C41.7105 14.4597 42.3395 14.4089 42.9805 14.4089Z" fill="#EC6665"/>
</svg>
